<?xml version="1.0" encoding="UTF-8" standalone="no"?>
<!DOCTYPE svg PUBLIC "-//W3C//DTD SVG 1.1//EN"
 "http://www.w3.org/Graphics/SVG/1.1/DTD/svg11.dtd">
<!-- Generated by graphviz version 2.40.1 (20161225.0304)
 -->
<!-- Title: dependencies Pages: 1 -->
<svg width="1210pt" height="284pt"
 viewBox="0.00 0.00 1210.00 284.00" xmlns="http://www.w3.org/2000/svg" xmlns:xlink="http://www.w3.org/1999/xlink">
<g id="graph0" class="graph" transform="scale(1 1) rotate(0) translate(4 280)">
<title>dependencies</title>
<polygon fill="#ffffff" stroke="transparent" points="-4,4 -4,-280 1206,-280 1206,4 -4,4"/>
<text text-anchor="start" x="580.0091" y="-42.4" font-family="sans-serif" font-weight="bold" font-size="14.00" fill="#000000">Legend</text>
<polygon fill="#ffffb3" stroke="transparent" points="367,-10 367,-30 387,-30 387,-10 367,-10"/>
<text text-anchor="start" x="390.629" y="-15.4" font-family="sans-serif" font-size="14.00" fill="#000000"> &#160;Declarations</text>
<polygon fill="#8dd3c7" stroke="transparent" points="480,-10 480,-30 500,-30 500,-10 480,-10"/>
<text text-anchor="start" x="503.7251" y="-15.4" font-family="sans-serif" font-size="14.00" fill="#000000"> &#160;Module</text>
<polygon fill="#80b1d3" stroke="transparent" points="566,-10 566,-30 586,-30 586,-10 566,-10"/>
<text text-anchor="start" x="589.7812" y="-15.4" font-family="sans-serif" font-size="14.00" fill="#000000"> &#160;Bootstrap</text>
<polygon fill="#fdb462" stroke="transparent" points="663,-10 663,-30 683,-30 683,-10 663,-10"/>
<text text-anchor="start" x="686.6732" y="-15.4" font-family="sans-serif" font-size="14.00" fill="#000000"> &#160;Providers</text>
<polygon fill="#fb8072" stroke="transparent" points="759,-10 759,-30 779,-30 779,-10 759,-10"/>
<text text-anchor="start" x="782.7258" y="-15.4" font-family="sans-serif" font-size="14.00" fill="#000000"> &#160;Exports</text>
<g id="clust1" class="cluster">
<title>cluster_AppModule</title>
<polygon fill="none" stroke="#000000" stroke-dasharray="1,5" points="8,-70 8,-268 294,-268 294,-70 8,-70"/>
</g>
<g id="clust2" class="cluster">
<title>cluster_AppModule_declarations</title>
<polygon fill="none" stroke="#000000" points="16,-78 16,-130 286,-130 286,-78 16,-78"/>
</g>
<g id="clust8" class="cluster">
<title>cluster_AppModule_bootstrap</title>
<polygon fill="none" stroke="#000000" points="96,-208 96,-260 184,-260 184,-208 96,-208"/>
</g>
<g id="clust10" class="cluster">
<title>cluster_HomePageModule</title>
<polygon fill="none" stroke="#000000" stroke-dasharray="1,5" points="594,-70 594,-195 730,-195 730,-70 594,-70"/>
</g>
<g id="clust11" class="cluster">
<title>cluster_HomePageModule_declarations</title>
<polygon fill="none" stroke="#000000" points="615,-78 615,-130 709,-130 709,-78 615,-78"/>
</g>
<g id="clust17" class="cluster">
<title>cluster_LoginPageModule</title>
<polygon fill="none" stroke="#000000" stroke-dasharray="1,5" points="302,-143 302,-195 438,-195 438,-143 302,-143"/>
</g>
<g id="clust24" class="cluster">
<title>cluster_PerfilPageModule</title>
<polygon fill="none" stroke="#000000" stroke-dasharray="1,5" points="738,-70 738,-195 872,-195 872,-70 738,-70"/>
</g>
<g id="clust25" class="cluster">
<title>cluster_PerfilPageModule_declarations</title>
<polygon fill="none" stroke="#000000" points="760,-78 760,-130 850,-130 850,-78 760,-78"/>
</g>
<g id="clust31" class="cluster">
<title>cluster_ProfilePageModule</title>
<polygon fill="none" stroke="#000000" stroke-dasharray="1,5" points="446,-143 446,-195 586,-195 586,-143 446,-143"/>
</g>
<g id="clust38" class="cluster">
<title>cluster_SinginPageModule</title>
<polygon fill="none" stroke="#000000" stroke-dasharray="1,5" points="880,-70 880,-195 1020,-195 1020,-70 880,-70"/>
</g>
<g id="clust39" class="cluster">
<title>cluster_SinginPageModule_declarations</title>
<polygon fill="none" stroke="#000000" points="902,-78 902,-130 998,-130 998,-78 902,-78"/>
</g>
<g id="clust45" class="cluster">
<title>cluster_WorkspacePageModule</title>
<polygon fill="none" stroke="#000000" stroke-dasharray="1,5" points="1028,-70 1028,-195 1194,-195 1194,-70 1028,-70"/>
</g>
<g id="clust46" class="cluster">
<title>cluster_WorkspacePageModule_declarations</title>
<polygon fill="none" stroke="#000000" points="1050,-78 1050,-130 1172,-130 1172,-78 1050,-78"/>
</g>
<!-- LoginPage -->
<g id="node1" class="node">
<title>LoginPage</title>
<polygon fill="#ffffb3" stroke="#000000" points="178.1558,-122 101.8442,-122 101.8442,-86 178.1558,-86 178.1558,-122"/>
<text text-anchor="middle" x="140" y="-99.8" font-family="Times,serif" font-size="14.00" fill="#000000">LoginPage</text>
</g>
<!-- AppModule -->
<g id="node4" class="node">
<title>AppModule</title>
<polygon fill="#8dd3c7" stroke="#000000" points="181.6571,-187 178.6571,-191 157.6571,-191 154.6571,-187 98.3429,-187 98.3429,-151 181.6571,-151 181.6571,-187"/>
<text text-anchor="middle" x="140" y="-164.8" font-family="Times,serif" font-size="14.00" fill="#000000">AppModule</text>
</g>
<!-- LoginPage&#45;&gt;AppModule -->
<g id="edge1" class="edge">
<title>LoginPage&#45;&gt;AppModule</title>
<path fill="none" stroke="#000000" d="M140,-122.1061C140,-122.1061 140,-140.991 140,-140.991"/>
<polygon fill="#000000" stroke="#000000" points="136.5001,-140.9909 140,-150.991 143.5001,-140.991 136.5001,-140.9909"/>
</g>
<!-- LoginPageModule -->
<g id="node8" class="node">
<title>LoginPageModule</title>
<polygon fill="#8dd3c7" stroke="#000000" points="430.205,-187 427.205,-191 406.205,-191 403.205,-187 309.795,-187 309.795,-151 430.205,-151 430.205,-187"/>
<text text-anchor="middle" x="370" y="-164.8" font-family="Times,serif" font-size="14.00" fill="#000000">LoginPageModule</text>
</g>
<!-- LoginPage&#45;&gt;LoginPageModule -->
<g id="edge6" class="edge">
<title>LoginPage&#45;&gt;LoginPageModule</title>
<path fill="none" stroke="#000000" d="M178.1924,-104C184.5294,-104 189.0863,-104 189.0863,-104 189.0863,-104 189.0863,-175 189.0863,-175 189.0863,-175 299.7583,-175 299.7583,-175"/>
<polygon fill="#000000" stroke="#000000" points="299.7584,-178.5001 309.7583,-175 299.7583,-171.5001 299.7584,-178.5001"/>
</g>
<!-- MyApp -->
<g id="node2" class="node">
<title>MyApp</title>
<polygon fill="#ffffb3" stroke="#000000" points="83.5529,-122 24.4471,-122 24.4471,-86 83.5529,-86 83.5529,-122"/>
<text text-anchor="middle" x="54" y="-99.8" font-family="Times,serif" font-size="14.00" fill="#000000">MyApp</text>
</g>
<!-- MyApp&#45;&gt;AppModule -->
<g id="edge2" class="edge">
<title>MyApp&#45;&gt;AppModule</title>
<path fill="none" stroke="#000000" d="M54,-122.1061C54,-141.3391 54,-169 54,-169 54,-169 88.2596,-169 88.2596,-169"/>
<polygon fill="#000000" stroke="#000000" points="88.2596,-172.5001 98.2596,-169 88.2596,-165.5001 88.2596,-172.5001"/>
</g>
<!-- ProfilePage -->
<g id="node3" class="node">
<title>ProfilePage</title>
<polygon fill="#ffffb3" stroke="#000000" points="277.812,-122 196.188,-122 196.188,-86 277.812,-86 277.812,-122"/>
<text text-anchor="middle" x="237" y="-99.8" font-family="Times,serif" font-size="14.00" fill="#000000">ProfilePage</text>
</g>
<!-- ProfilePage&#45;&gt;AppModule -->
<g id="edge3" class="edge">
<title>ProfilePage&#45;&gt;AppModule</title>
<path fill="none" stroke="#000000" d="M237,-122.0225C237,-139.3734 237,-163 237,-163 237,-163 191.6997,-163 191.6997,-163"/>
<polygon fill="#000000" stroke="#000000" points="191.6997,-159.5001 181.6997,-163 191.6996,-166.5001 191.6997,-159.5001"/>
</g>
<!-- ProfilePageModule -->
<g id="node11" class="node">
<title>ProfilePageModule</title>
<polygon fill="#8dd3c7" stroke="#000000" points="578.3613,-187 575.3613,-191 554.3613,-191 551.3613,-187 453.6387,-187 453.6387,-151 578.3613,-151 578.3613,-187"/>
<text text-anchor="middle" x="516" y="-164.8" font-family="Times,serif" font-size="14.00" fill="#000000">ProfilePageModule</text>
</g>
<!-- ProfilePage&#45;&gt;ProfilePageModule -->
<g id="edge8" class="edge">
<title>ProfilePage&#45;&gt;ProfilePageModule</title>
<path fill="none" stroke="#000000" d="M277.8678,-104C355.3627,-104 516,-104 516,-104 516,-104 516,-140.8939 516,-140.8939"/>
<polygon fill="#000000" stroke="#000000" points="512.5001,-140.8938 516,-150.8939 519.5001,-140.8939 512.5001,-140.8938"/>
</g>
<!-- IonicApp  -->
<g id="node5" class="node">
<title>IonicApp </title>
<polygon fill="#80b1d3" stroke="#000000" points="176.3734,-252 103.6266,-252 103.6266,-216 176.3734,-216 176.3734,-252"/>
<text text-anchor="middle" x="140" y="-229.8" font-family="Times,serif" font-size="14.00" fill="#000000">IonicApp </text>
</g>
<!-- AppModule&#45;&gt;IonicApp  -->
<g id="edge4" class="edge">
<title>AppModule&#45;&gt;IonicApp </title>
<path fill="none" stroke="#000000" stroke-dasharray="1,5" d="M140,-187.1061C140,-187.1061 140,-205.991 140,-205.991"/>
<polygon fill="#000000" stroke="#000000" points="136.5001,-205.9909 140,-215.991 143.5001,-205.991 136.5001,-205.9909"/>
</g>
<!-- HomePage -->
<g id="node6" class="node">
<title>HomePage</title>
<polygon fill="#ffffb3" stroke="#000000" points="700.9248,-122 623.0752,-122 623.0752,-86 700.9248,-86 700.9248,-122"/>
<text text-anchor="middle" x="662" y="-99.8" font-family="Times,serif" font-size="14.00" fill="#000000">HomePage</text>
</g>
<!-- HomePageModule -->
<g id="node7" class="node">
<title>HomePageModule</title>
<polygon fill="#8dd3c7" stroke="#000000" points="722.4734,-187 719.4734,-191 698.4734,-191 695.4734,-187 601.5266,-187 601.5266,-151 722.4734,-151 722.4734,-187"/>
<text text-anchor="middle" x="662" y="-164.8" font-family="Times,serif" font-size="14.00" fill="#000000">HomePageModule</text>
</g>
<!-- HomePage&#45;&gt;HomePageModule -->
<g id="edge5" class="edge">
<title>HomePage&#45;&gt;HomePageModule</title>
<path fill="none" stroke="#000000" d="M662,-122.1061C662,-122.1061 662,-140.991 662,-140.991"/>
<polygon fill="#000000" stroke="#000000" points="658.5001,-140.9909 662,-150.991 665.5001,-140.991 658.5001,-140.9909"/>
</g>
<!-- PerfilPage -->
<g id="node9" class="node">
<title>PerfilPage</title>
<polygon fill="#ffffb3" stroke="#000000" points="842.3121,-122 767.6879,-122 767.6879,-86 842.3121,-86 842.3121,-122"/>
<text text-anchor="middle" x="805" y="-99.8" font-family="Times,serif" font-size="14.00" fill="#000000">PerfilPage</text>
</g>
<!-- PerfilPageModule -->
<g id="node10" class="node">
<title>PerfilPageModule</title>
<polygon fill="#8dd3c7" stroke="#000000" points="863.8613,-187 860.8613,-191 839.8613,-191 836.8613,-187 746.1387,-187 746.1387,-151 863.8613,-151 863.8613,-187"/>
<text text-anchor="middle" x="805" y="-164.8" font-family="Times,serif" font-size="14.00" fill="#000000">PerfilPageModule</text>
</g>
<!-- PerfilPage&#45;&gt;PerfilPageModule -->
<g id="edge7" class="edge">
<title>PerfilPage&#45;&gt;PerfilPageModule</title>
<path fill="none" stroke="#000000" d="M805,-122.1061C805,-122.1061 805,-140.991 805,-140.991"/>
<polygon fill="#000000" stroke="#000000" points="801.5001,-140.9909 805,-150.991 808.5001,-140.991 801.5001,-140.9909"/>
</g>
<!-- SinginPage -->
<g id="node12" class="node">
<title>SinginPage</title>
<polygon fill="#ffffb3" stroke="#000000" points="989.7759,-122 910.2241,-122 910.2241,-86 989.7759,-86 989.7759,-122"/>
<text text-anchor="middle" x="950" y="-99.8" font-family="Times,serif" font-size="14.00" fill="#000000">SinginPage</text>
</g>
<!-- SinginPageModule -->
<g id="node13" class="node">
<title>SinginPageModule</title>
<polygon fill="#8dd3c7" stroke="#000000" points="1011.8258,-187 1008.8258,-191 987.8258,-191 984.8258,-187 888.1742,-187 888.1742,-151 1011.8258,-151 1011.8258,-187"/>
<text text-anchor="middle" x="950" y="-164.8" font-family="Times,serif" font-size="14.00" fill="#000000">SinginPageModule</text>
</g>
<!-- SinginPage&#45;&gt;SinginPageModule -->
<g id="edge9" class="edge">
<title>SinginPage&#45;&gt;SinginPageModule</title>
<path fill="none" stroke="#000000" d="M950,-122.1061C950,-122.1061 950,-140.991 950,-140.991"/>
<polygon fill="#000000" stroke="#000000" points="946.5001,-140.9909 950,-150.991 953.5001,-140.991 946.5001,-140.9909"/>
</g>
<!-- WorkspacePage -->
<g id="node14" class="node">
<title>WorkspacePage</title>
<polygon fill="#ffffb3" stroke="#000000" points="1164.1755,-122 1057.8245,-122 1057.8245,-86 1164.1755,-86 1164.1755,-122"/>
<text text-anchor="middle" x="1111" y="-99.8" font-family="Times,serif" font-size="14.00" fill="#000000">WorkspacePage</text>
</g>
<!-- WorkspacePageModule -->
<g id="node15" class="node">
<title>WorkspacePageModule</title>
<polygon fill="#8dd3c7" stroke="#000000" points="1185.7255,-187 1182.7255,-191 1161.7255,-191 1158.7255,-187 1036.2745,-187 1036.2745,-151 1185.7255,-151 1185.7255,-187"/>
<text text-anchor="middle" x="1111" y="-164.8" font-family="Times,serif" font-size="14.00" fill="#000000">WorkspacePageModule</text>
</g>
<!-- WorkspacePage&#45;&gt;WorkspacePageModule -->
<g id="edge10" class="edge">
<title>WorkspacePage&#45;&gt;WorkspacePageModule</title>
<path fill="none" stroke="#000000" d="M1111,-122.1061C1111,-122.1061 1111,-140.991 1111,-140.991"/>
<polygon fill="#000000" stroke="#000000" points="1107.5001,-140.9909 1111,-150.991 1114.5001,-140.991 1107.5001,-140.9909"/>
</g>
</g>
</svg>
